<?xml version="1.0" standalone="no"?>
<!DOCTYPE svg PUBLIC "-//W3C//DTD SVG 20010904//EN"
 "http://www.w3.org/TR/2001/REC-SVG-20010904/DTD/svg10.dtd">
<svg version="1.0" xmlns="http://www.w3.org/2000/svg"
 width="822.000000pt" height="822.000000pt" viewBox="0 0 822.000000 822.000000"
 preserveAspectRatio="xMidYMid meet">

<g transform="translate(0.000000,822.000000) scale(0.100000,-0.100000)"
fill="#000000" stroke="none">
<path d="M0 4110 l0 -4110 4110 0 4110 0 0 4110 0 4110 -4110 0 -4110 0 0
-4110z m3460 1244 c0 -990 -1 -1045 -17 -1042 -17 3 -18 62 -21 1040 -2 981
-1 1037 15 1041 10 3 19 5 21 6 1 0 2 -470 2 -1045z m-1460 443 c267 0 509 3
538 7 l52 8 0 -45 c0 -51 7 -48 -138 -63 -37 -3 -84 -17 -115 -33 -65 -33 -94
-81 -107 -182 -5 -41 -10 -323 -10 -626 l0 -553 -210 0 -210 0 0 538 c0 295
-4 575 -10 621 -21 181 -66 217 -312 246 l-48 6 0 45 0 46 43 -8 c23 -4 260
-7 527 -7z m3805 -16 c230 -36 390 -108 520 -236 202 -199 244 -518 104 -804
-43 -88 -65 -117 -133 -186 -105 -106 -222 -181 -355 -226 -63 -22 -299 -28
-251 -7 111 50 139 67 190 118 68 68 128 182 162 305 19 69 22 107 22 280 1
179 -1 208 -22 278 -59 203 -156 310 -338 374 -74 25 -90 27 -259 27 -193 1
-214 -3 -273 -58 -75 -68 -82 -132 -82 -792 l0 -544 -210 0 -210 0 0 539 c0
542 -6 655 -37 733 -30 75 -108 113 -255 125 l-76 6 -4 41 -3 41 715 -1 c518
-1 737 -4 795 -13z m-5061 -1593 c33 -17 56 -40 50 -50 -3 -5 -20 1 -38 12
-78 47 -181 35 -239 -29 -91 -101 -68 -279 42 -335 64 -32 148 -27 203 14 32
23 57 18 36 -7 -24 -30 -91 -53 -154 -53 -127 0 -203 77 -212 215 -4 66 -2 81
23 130 29 60 78 101 137 116 39 9 123 2 152 -13z m472 7 c93 -27 148 -111 147
-225 -1 -153 -88 -238 -236 -228 -48 3 -75 10 -105 30 -90 60 -121 209 -64
318 30 59 57 84 118 105 51 18 79 18 140 0z m3340 -10 c24 -16 42 -61 29 -73
-4 -4 -10 -2 -12 5 -2 7 -13 23 -24 37 -29 37 -99 37 -128 0 -25 -31 -27 -64
-7 -102 21 -38 182 -196 194 -188 5 3 15 26 22 51 7 25 17 45 21 45 15 0 10
-43 -10 -85 l-19 -40 46 -47 c55 -57 34 -68 -25 -14 l-37 33 -43 -30 c-53 -38
-142 -49 -191 -23 -85 44 -80 171 7 222 22 13 29 23 25 34 -35 79 -37 94 -21
133 27 63 110 83 173 42z m-2986 -215 c0 -198 -2 -230 -15 -230 -13 0 -15 32
-15 230 0 198 2 230 15 230 13 0 15 -32 15 -230z m480 220 c0 -6 -47 -10 -120
-10 l-120 0 0 -100 0 -100 105 0 c63 0 105 -4 105 -10 0 -6 -42 -10 -105 -10
l-105 0 0 -110 c0 -91 -3 -110 -15 -110 -13 0 -15 32 -15 230 l0 230 135 0
c83 0 135 -4 135 -10z m440 0 c0 -6 -47 -10 -120 -10 l-120 0 0 -100 0 -100
105 0 c139 0 138 -18 -1 -22 l-106 -3 -2 -105 c-1 -91 -3 -105 -18 -108 -17
-3 -18 13 -18 227 l0 231 140 0 c87 0 140 -4 140 -10z m182 -121 c-4 -154 8
-223 45 -262 66 -68 186 -49 227 36 13 28 16 67 16 196 0 136 2 161 15 161 13
0 15 -25 15 -163 0 -149 -2 -167 -22 -207 -13 -25 -39 -55 -58 -68 -30 -20
-45 -23 -100 -20 -77 4 -118 28 -146 85 -16 32 -20 67 -22 206 -3 157 -3 167
15 167 17 0 18 -9 15 -131z m721 117 c18 -7 39 -22 48 -32 55 -64 12 -174 -73
-191 -16 -3 -28 -7 -28 -9 0 -2 36 -48 80 -103 44 -54 80 -102 80 -105 0 -3
-7 -6 -14 -6 -8 0 -52 47 -97 105 -82 105 -82 105 -125 105 l-44 0 0 -105 c0
-87 -3 -105 -15 -105 -13 0 -15 32 -15 230 l0 230 85 0 c50 0 99 -6 118 -14z
m537 4 c0 -6 -46 -10 -119 -10 l-120 0 -3 -95 -3 -94 99 -3 c69 -2 101 -7 104
-15 3 -10 -21 -13 -100 -13 l-103 0 2 -97 1 -98 121 -3 c171 -4 156 -22 -19
-22 l-140 0 0 230 0 230 140 0 c87 0 140 -4 140 -10z m1394 -4 c44 -18 66 -52
66 -100 0 -33 -7 -45 -39 -77 l-40 -37 25 -6 c106 -27 96 -185 -14 -216 -20
-5 -76 -10 -124 -10 l-88 0 0 230 0 230 90 0 c55 0 104 -6 124 -14z m536 4 c0
-6 -47 -10 -120 -10 l-120 0 0 -95 0 -95 100 0 c82 0 100 -3 100 -15 0 -12
-18 -15 -100 -15 l-100 0 0 -100 0 -100 120 0 c73 0 120 -4 120 -10 0 -6 -52
-10 -135 -10 l-135 0 0 230 0 230 135 0 c83 0 135 -4 135 -10z m425 -211 c50
-121 92 -225 94 -230 2 -6 -4 -9 -14 -7 -11 2 -28 29 -45 73 l-28 70 -113 0
-113 0 -27 -63 c-14 -35 -31 -68 -37 -74 -30 -30 -20 13 33 144 116 287 126
308 144 308 12 0 40 -59 106 -221z m256 52 c4 -184 8 -197 72 -245 33 -24 100
-25 145 -2 59 30 72 76 72 259 0 133 2 157 15 157 13 0 15 -25 15 -163 0 -149
-2 -166 -22 -207 -32 -61 -66 -83 -137 -88 -74 -5 -123 16 -159 71 -26 39 -27
46 -30 214 -3 148 -1 173 11 173 13 0 16 -28 18 -169z m819 159 c0 -6 -33 -10
-80 -10 l-80 0 0 -220 c0 -213 -1 -220 -20 -220 -19 0 -20 7 -20 220 l0 220
-80 0 c-47 0 -80 4 -80 10 0 6 67 10 180 10 113 0 180 -4 180 -10z m420 0 c0
-6 -47 -10 -120 -10 l-120 0 0 -95 0 -95 100 0 c82 0 100 -3 100 -15 0 -12
-18 -15 -100 -15 l-100 0 0 -100 0 -100 120 0 c76 0 120 -4 120 -10 0 -7 -48
-10 -137 -8 l-138 3 -3 228 -2 227 140 0 c87 0 140 -4 140 -10z m-5560 -892
c0 -183 5 -364 10 -402 11 -76 41 -139 80 -167 30 -22 120 -45 213 -54 l67 -7
0 -45 0 -45 -67 7 c-88 9 -961 9 -1036 0 l-57 -7 0 45 0 45 63 7 c217 22 275
68 297 235 5 41 10 220 10 398 l0 322 210 0 210 0 0 -332z m1240 -593 c0 -918
0 -925 -20 -925 -20 0 -20 7 -20 925 0 918 0 925 20 925 20 0 20 -7 20 -925z
m1630 589 c0 -349 8 -451 41 -516 24 -46 71 -83 128 -98 55 -15 320 -15 404 0
324 58 517 220 599 506 20 69 22 102 23 261 l0 183 222 0 223 0 7 -27 c5 -16
8 -91 7 -168 -1 -122 -4 -151 -28 -230 -96 -315 -343 -525 -716 -609 -126 -28
-192 -30 -942 -31 l-756 0 -4 41 -3 41 98 11 c144 17 197 45 237 123 31 59 40
184 40 526 l0 323 210 0 210 0 0 -336z"/>
<path d="M1089 4170 c-99 -30 -152 -152 -119 -272 22 -79 91 -130 175 -131
109 -1 177 66 183 183 7 110 -26 176 -102 211 -43 19 -93 23 -137 9z"/>
<path d="M4379 3941 c-31 -31 -39 -46 -39 -75 0 -48 13 -72 50 -91 54 -28 133
-12 174 34 l20 22 -74 74 c-41 41 -79 75 -83 75 -5 0 -27 -17 -48 -39z"/>
<path d="M3222 4079 l3 -104 29 -3 c53 -6 115 9 146 35 28 23 31 30 28 76 -4
70 -33 90 -134 95 l-75 4 3 -103z"/>
<path d="M5140 4085 l0 -95 81 0 c76 0 82 2 110 29 31 31 38 75 18 113 -16 30
-70 48 -144 48 l-65 0 0 -95z"/>
<path d="M5140 3861 l0 -101 63 0 c34 0 79 5 99 10 74 21 102 101 54 157 -23
26 -29 28 -120 31 l-96 4 0 -101z"/>
<path d="M6128 4042 c-27 -65 -48 -120 -48 -125 0 -4 45 -7 101 -7 55 0 99 4
97 8 -1 4 -23 57 -47 117 -24 61 -47 113 -50 117 -3 4 -27 -46 -53 -110z"/>
</g>
</svg>
